<svg width="48" height="48" viewBox="0 0 48 48" fill="none" xmlns="http://www.w3.org/2000/svg">
<path fill-rule="evenodd" clip-rule="evenodd" d="M16 0C7.16344 0 0 7.16344 0 16V32C0 40.8366 7.16344 48 16 48H32C40.8366 48 48 40.8366 48 32V16C48 7.16344 40.8366 0 32 0H16ZM23.9292 6.00003C23.0849 6.00003 22.4005 6.68445 22.4005 7.52873V11.1492H19.2626C18.4183 11.1492 17.7339 11.8336 17.7339 12.6779C17.7339 13.5222 18.4183 14.2066 19.2626 14.2066H22.4005V22.0914L22.4005 22.0916C22.4005 22.7137 21.8961 23.218 21.2741 23.218C20.652 23.218 20.1476 22.7137 20.1476 22.0916V19.7552C20.146 18.9123 19.4622 18.2295 18.6189 18.2295C17.7764 18.2295 17.0931 18.9111 17.0903 19.753V22.172C17.0903 22.7497 16.622 23.218 16.0443 23.218C15.4667 23.218 14.9984 22.7497 14.9984 22.172V21.6086H14.9392C14.8225 20.9079 14.2134 20.3738 13.4797 20.3738C12.6625 20.3738 12 21.0363 12 21.8535V26.0811C12 26.8983 12.6625 27.5607 13.4797 27.5607C14.2969 27.5607 14.9593 26.8983 14.9593 26.0811V25.6315H14.9984V25.0684C14.9984 24.4907 15.4667 24.0224 16.0443 24.0224C16.622 24.0224 17.0903 24.4907 17.0903 25.0684V28.2867L17.0903 28.291V33.9187C17.0903 34.763 17.7747 35.4474 18.6189 35.4474C19.4632 35.4474 20.1476 34.763 20.1476 33.9187V28.5308L20.1476 28.5282V25.149C20.1476 24.5269 20.652 24.0226 21.2741 24.0226C21.8961 24.0226 22.4005 24.5269 22.4005 25.149V26.1143H22.4194C22.535 26.8439 23.167 27.4018 23.9292 27.4018C24.7734 27.4018 25.4579 26.7173 25.4579 25.8731V14.2066H28.2739C29.1181 14.2066 29.8026 13.5222 29.8026 12.6779C29.8026 11.8336 29.1181 11.1492 28.2739 11.1492H25.4579V7.52873C25.4579 6.68445 24.7734 6.00003 23.9292 6.00003ZM23.7682 28.3672C22.924 28.3672 22.2395 29.0516 22.2395 29.8959V36.9762C22.2395 37.8204 22.924 38.5048 23.7682 38.5048C24.6125 38.5048 25.2969 37.8204 25.2969 36.9762V34.16L25.2969 33.436C25.2969 32.8584 25.7652 32.3901 26.3429 32.3901C26.9206 32.3901 27.3888 32.8584 27.3888 33.436V36.6543L27.3888 36.6575V40.1944C27.3888 41.0387 28.0733 41.7231 28.9175 41.7231C29.7618 41.7231 30.4462 41.0387 30.4462 40.1944V31.7463C30.4463 31.1243 30.9506 30.62 31.5726 30.62C32.1947 30.62 32.699 31.1243 32.699 31.7463H32.7152V33.268C32.7152 34.0852 33.3777 34.7476 34.1949 34.7476C35.0121 34.7476 35.6746 34.0852 35.6746 33.268V26.2924C35.6746 25.4752 35.0121 24.8128 34.1949 24.8128C33.3777 24.8128 32.7152 25.4752 32.7152 26.2924V27.7235H32.699V28.3671C32.699 28.9892 32.1947 29.4936 31.5726 29.4936C30.9505 29.4936 30.4462 28.9892 30.4462 28.3671L30.4462 27.7235V20.7236C30.4462 19.8794 29.7618 19.1949 28.9175 19.1949C28.0733 19.1949 27.3888 19.8794 27.3888 20.7236V27.318L27.3888 27.3212V30.5395C27.3888 31.1172 26.9206 31.5854 26.3429 31.5854C25.7652 31.5854 25.2969 31.1172 25.2969 30.5395L25.2969 30.1372V29.8959C25.2969 29.0516 24.6125 28.3672 23.7682 28.3672Z" fill="#F97D27"/>
</svg>
